<svg width="187.8" height="100.001" viewBox="0 0 187.8 100.001" xmlns="http://www.w3.org/2000/svg"><g id="svgGroup" stroke-linecap="round" fill-rule="evenodd" font-size="9pt" stroke="#ffffff" stroke-width="0" fill="#41b883" style="stroke:#ffffff;stroke-width:0;fill:#41b883"><path d="M 31.4 36.701 L 23.2 75.001 L 8.8 75.001 L 22.4 11.401 L 37.2 9.401 L 32.5 31.601 L 33.1 31.601 A 11.883 11.883 0 0 0 40.53 28.966 A 17.8 17.8 0 0 0 43.1 26.501 A 19.105 19.105 0 0 0 46.146 21.78 A 15.562 15.562 0 0 0 47.5 15.401 A 11.655 11.655 0 0 0 46.984 11.848 A 9.252 9.252 0 0 0 44.05 7.501 Q 41.184 5.091 36.35 4.684 A 24.41 24.41 0 0 0 34.3 4.601 Q 23.8 4.601 16.55 11.301 A 22.231 22.231 0 0 0 9.413 26.241 A 30.557 30.557 0 0 0 9.3 28.901 Q 9.3 30.801 9.55 32.201 Q 9.8 33.601 10.4 34.901 Q 10.573 35.247 10.634 35.406 A 1.112 1.112 0 0 1 10.65 35.451 A 1.304 1.304 0 0 1 10.676 35.539 Q 10.688 35.585 10.694 35.625 A 0.519 0.519 0 0 1 10.7 35.701 A 20.168 20.168 0 0 1 7.736 35.498 Q 4.513 35.018 2.65 33.401 Q 0.198 31.272 0.015 27.175 A 15.103 15.103 0 0 1 0 26.501 A 17.782 17.782 0 0 1 1.773 18.862 A 23.314 23.314 0 0 1 3.45 15.901 Q 6.9 10.701 13 6.801 Q 18 3.501 24.05 1.751 Q 30.1 0.001 36.3 0.001 A 35.388 35.388 0 0 1 42.559 0.521 Q 48.077 1.513 51.85 4.401 A 14.963 14.963 0 0 1 55.781 8.767 Q 57.543 11.809 57.598 15.652 A 17.359 17.359 0 0 1 57.6 15.901 Q 57.6 20.601 54.9 24.901 Q 52.2 29.201 47.6 31.801 A 15.37 15.37 0 0 1 52.08 33.366 A 12.664 12.664 0 0 1 56.35 37.151 A 15.735 15.735 0 0 1 58.897 42.991 Q 59.384 45.189 59.4 47.736 A 27.522 27.522 0 0 1 59.4 47.901 Q 59.4 52.601 58 57.801 A 36.812 36.812 0 0 1 55.958 63.535 A 30.224 30.224 0 0 1 54.1 67.001 A 24.011 24.011 0 0 1 50.828 71.185 A 18.95 18.95 0 0 1 46.9 74.251 A 18.141 18.141 0 0 1 38.226 76.689 A 21.639 21.639 0 0 1 37.5 76.701 A 18.846 18.846 0 0 1 34.768 76.515 Q 31.988 76.107 30.2 74.801 A 6.168 6.168 0 0 1 27.651 70.28 A 9.051 9.051 0 0 1 27.6 69.301 Q 27.6 68.119 27.891 66.696 A 17.971 17.971 0 0 1 27.9 66.651 Q 28.195 65.223 28.878 63.554 A 24.476 24.476 0 0 1 28.9 63.501 Q 30.8 65.401 32.35 66.251 Q 33.9 67.101 35.6 67.101 A 6.981 6.981 0 0 0 40.911 64.671 Q 41.816 63.687 42.584 62.304 A 16.546 16.546 0 0 0 42.8 61.901 Q 45.247 57.188 45.476 50.505 A 40.932 40.932 0 0 0 45.5 49.101 Q 45.5 42.801 43.1 39.601 Q 40.7 36.401 36 36.401 A 13.592 13.592 0 0 0 35.609 36.407 Q 35.165 36.42 34.547 36.459 A 59.428 59.428 0 0 0 33.95 36.501 Q 32.6 36.601 31.4 36.701 Z M 165.4 29.601 L 165.4 30.201 L 166.5 25.001 L 180.9 25.001 L 171 71.401 A 22.551 22.551 0 0 0 174.932 69.567 A 16.209 16.209 0 0 0 178.85 66.351 A 18.316 18.316 0 0 0 180.99 63.29 Q 182.464 60.687 183.6 57.101 L 187.8 57.101 A 38.509 38.509 0 0 1 185.512 62.979 Q 183.933 66.183 181.855 68.619 A 22.981 22.981 0 0 1 181.25 69.301 A 21.867 21.867 0 0 1 173.579 74.601 A 28.109 28.109 0 0 1 170.1 75.801 L 168.6 83.001 A 34.356 34.356 0 0 1 167.043 88.291 Q 165.952 91.087 164.43 93.227 A 17.21 17.21 0 0 1 162.3 95.701 A 15.297 15.297 0 0 1 153.827 99.764 A 21.262 21.262 0 0 1 150.6 100.001 Q 146.164 100.001 143.278 98.033 A 9.699 9.699 0 0 1 142.45 97.401 A 8.513 8.513 0 0 1 139.474 91.66 A 12.068 12.068 0 0 1 139.4 90.301 A 11.045 11.045 0 0 1 142.23 82.912 A 15.424 15.424 0 0 1 143.45 81.651 A 20.684 20.684 0 0 1 147.071 79.014 Q 150.575 76.963 155.7 75.401 L 156.9 70.101 A 20.487 20.487 0 0 1 153.716 72.818 A 17.052 17.052 0 0 1 151.3 74.201 Q 148.3 75.601 144.9 75.601 A 14.72 14.72 0 0 1 140.623 75.01 A 11.322 11.322 0 0 1 135.15 71.401 A 13.82 13.82 0 0 1 132.544 66.511 Q 131.6 63.471 131.6 59.501 A 41.1 41.1 0 0 1 132.404 51.564 A 49.848 49.848 0 0 1 133.3 47.801 A 46.278 46.278 0 0 1 136.581 39.269 A 41.27 41.27 0 0 1 138 36.701 A 33.27 33.27 0 0 1 141.732 31.774 A 25.176 25.176 0 0 1 146.6 27.651 Q 151.5 24.501 157.3 24.501 A 18.111 18.111 0 0 1 159.549 24.631 Q 161.852 24.92 163.3 25.851 Q 165.338 27.161 165.398 29.461 A 5.383 5.383 0 0 1 165.4 29.601 Z M 62.9 57.101 L 73.6 7.001 L 88.4 5.001 L 76.9 59.001 Q 76.7 59.901 76.6 60.651 A 11.689 11.689 0 0 0 76.5 62.151 A 12.77 12.77 0 0 0 76.5 62.201 Q 76.5 63.361 76.82 64.134 A 2.476 2.476 0 0 0 77.45 65.051 A 2.759 2.759 0 0 0 78.316 65.56 Q 79.119 65.867 80.328 65.897 A 10.79 10.79 0 0 0 80.6 65.901 A 6.622 6.622 0 0 0 84.044 64.907 Q 84.962 64.358 85.843 63.506 A 12.414 12.414 0 0 0 85.9 63.451 A 13.64 13.64 0 0 0 88.621 59.611 A 17.689 17.689 0 0 0 89.6 57.101 L 93.8 57.101 Q 91.245 64.367 87.286 68.828 A 22.823 22.823 0 0 1 85.2 70.901 Q 79.8 75.601 72.8 75.601 A 12.793 12.793 0 0 1 69.484 75.194 A 9.179 9.179 0 0 1 64.95 72.451 A 10.344 10.344 0 0 1 62.726 68.384 Q 62.257 66.8 62.139 64.902 A 21.084 21.084 0 0 1 62.1 63.601 A 20.327 20.327 0 0 1 62.144 62.305 Q 62.181 61.722 62.25 61.083 A 33.768 33.768 0 0 1 62.3 60.651 A 37.57 37.57 0 0 1 62.588 58.715 A 47.406 47.406 0 0 1 62.9 57.101 Z M 142.1 34.301 L 143 37.001 A 20.547 20.547 0 0 1 139.621 39.882 Q 137.944 41.037 135.899 42.033 A 34.441 34.441 0 0 1 135.55 42.201 Q 130.9 44.401 125.3 45.301 A 52.058 52.058 0 0 1 123.641 54.694 Q 122.066 60.334 119.204 64.734 A 30.672 30.672 0 0 1 117.5 67.101 A 24.187 24.187 0 0 1 112.172 72.138 A 18.776 18.776 0 0 1 101.4 75.401 A 24.308 24.308 0 0 1 96.783 74.99 Q 94.148 74.48 92.101 73.335 A 12.296 12.296 0 0 1 89.5 71.401 A 12.705 12.705 0 0 1 86.271 65.984 Q 85.4 63.196 85.4 59.601 A 39.815 39.815 0 0 1 86.087 52.394 A 50.621 50.621 0 0 1 87.25 47.501 A 46.331 46.331 0 0 1 90.09 40.048 A 39.106 39.106 0 0 1 92.3 36.101 Q 96 30.201 101.2 27.151 A 22.392 22.392 0 0 1 112.302 24.105 A 26.569 26.569 0 0 1 112.8 24.101 A 16.261 16.261 0 0 1 116.572 24.511 Q 119.483 25.205 121.455 27.072 A 10.113 10.113 0 0 1 122.4 28.101 Q 125.6 32.101 125.6 40.101 A 1.668 1.668 0 0 0 125.884 40.21 A 2.045 2.045 0 0 0 126.05 40.251 Q 126.218 40.284 126.454 40.295 A 5.289 5.289 0 0 0 126.7 40.301 Q 128.952 40.301 131.838 39.403 A 32.066 32.066 0 0 0 134.1 38.601 Q 138.4 36.901 142.1 34.301 Z M 113.6 30.201 A 5.551 5.551 0 0 0 110.221 31.453 Q 108.142 33.028 106.175 36.583 A 40.147 40.147 0 0 0 104.55 39.901 A 54.376 54.376 0 0 0 101.517 48.703 A 40.078 40.078 0 0 0 100.3 58.301 A 33.048 33.048 0 0 0 100.362 60.401 Q 100.554 63.412 101.35 64.701 A 3.223 3.223 0 0 0 102.951 66.002 Q 103.947 66.401 105.4 66.401 A 5.158 5.158 0 0 0 108.335 65.42 Q 110.082 64.229 111.745 61.591 A 25.997 25.997 0 0 0 112.45 60.401 A 34.308 34.308 0 0 0 115.191 53.931 Q 116.381 50.138 117 45.601 A 3.724 3.724 0 0 1 116.038 45.261 A 2.781 2.781 0 0 1 114.95 44.251 A 3.881 3.881 0 0 1 114.517 43.231 Q 114.385 42.75 114.333 42.175 A 8.65 8.65 0 0 1 114.3 41.401 A 7.598 7.598 0 0 1 114.476 39.729 A 5.852 5.852 0 0 1 115.1 38.101 Q 115.9 36.701 117.4 36.001 Q 117.243 33.49 116.686 32.149 A 3.958 3.958 0 0 0 116.35 31.501 A 2.76 2.76 0 0 0 114.535 30.292 A 4.489 4.489 0 0 0 113.6 30.201 Z M 159.4 58.101 L 164.5 34.401 A 4.125 4.125 0 0 0 164.131 32.897 A 3.805 3.805 0 0 0 163.3 31.751 Q 162.2 30.701 160.4 30.701 Q 155.455 30.701 151.521 38.137 A 36.542 36.542 0 0 0 150.65 39.901 A 46.982 46.982 0 0 0 147.213 50.187 A 39.389 39.389 0 0 0 146.4 58.101 A 22.264 22.264 0 0 0 146.487 60.14 Q 146.676 62.191 147.278 63.512 A 5.695 5.695 0 0 0 147.5 63.951 A 3.648 3.648 0 0 0 149.959 65.746 A 6.269 6.269 0 0 0 151.4 65.901 A 5.707 5.707 0 0 0 153.973 65.261 Q 155.067 64.715 156.15 63.701 A 11.262 11.262 0 0 0 159.118 59.033 A 13.832 13.832 0 0 0 159.4 58.101 Z M 154.1 83.301 L 154.7 80.401 Q 149.7 82.301 147.3 84.351 A 8.334 8.334 0 0 0 145.987 85.74 Q 145.159 86.866 144.962 88.111 A 5.039 5.039 0 0 0 144.9 88.901 A 3.105 3.105 0 0 0 145.721 91.01 A 4.147 4.147 0 0 0 145.9 91.201 A 3.27 3.27 0 0 0 148.256 92.2 A 3.89 3.89 0 0 0 148.3 92.201 Q 150 92.201 151.6 89.801 A 13.6 13.6 0 0 0 152.764 87.618 Q 153.248 86.49 153.638 85.134 A 29.568 29.568 0 0 0 154.1 83.301 Z" vector-effect="non-scaling-stroke"/></g></svg>